<svg xmlns="http://www.w3.org/2000/svg" xmlns:xlink="http://www.w3.org/1999/xlink" width="1080" zoomAndPan="magnify" viewBox="0 0 810 809.999993" height="1080" preserveAspectRatio="xMidYMid meet" version="1.0"><defs><clipPath id="2b38e708de"><path d="M 176 208 L 634.988281 208 L 634.988281 728 L 176 728 Z M 176 208 " clip-rule="nonzero"/></clipPath></defs><g clip-path="url(#2b38e708de)"><path fill="#264de4" d="M 404.832031 727.355469 L 217.734375 675.441406 L 176.039062 208.03125 L 634.1875 208.03125 L 592.449219 675.371094 Z M 404.832031 727.355469 " fill-opacity="1" fill-rule="nonzero"/></g><path fill="#2965f1" d="M 556.71875 645.613281 L 592.382812 246.246094 L 405.113281 246.246094 L 405.113281 687.621094 Z M 556.71875 645.613281 " fill-opacity="1" fill-rule="nonzero"/><path fill="#ebebeb" d="M 271.621094 419.605469 L 276.761719 476.929688 L 405.113281 476.929688 L 405.113281 419.605469 Z M 261.292969 303.574219 L 266.503906 360.902344 L 405.113281 360.902344 L 405.113281 303.574219 Z M 405.113281 568.488281 L 404.863281 568.554688 L 340.984375 551.3125 L 336.902344 505.59375 L 279.324219 505.59375 L 287.359375 595.605469 L 404.847656 628.203125 L 405.113281 628.128906 Z M 405.113281 568.488281 " fill-opacity="1" fill-rule="nonzero"/><path fill="#ffffff" d="M 283.863281 81.003906 L 353.328125 81.003906 L 353.328125 110.042969 L 312.910156 110.042969 L 312.910156 139.078125 L 353.332031 139.078125 L 353.332031 168.109375 L 283.863281 168.109375 Z M 367.222656 81.003906 L 436.6875 81.003906 L 436.6875 106.253906 L 396.273438 106.253906 L 396.273438 111.304688 L 436.6875 111.304688 L 436.6875 169.375 L 367.222656 169.375 L 367.222656 142.859375 L 407.640625 142.859375 L 407.640625 137.8125 L 367.21875 137.8125 L 367.21875 81.003906 Z M 450.582031 81.003906 L 520.050781 81.003906 L 520.050781 106.253906 L 479.632812 106.253906 L 479.632812 111.304688 L 520.050781 111.304688 L 520.050781 169.375 L 450.582031 169.375 L 450.582031 142.859375 L 491 142.859375 L 491 137.8125 L 450.585938 137.8125 L 450.585938 81.003906 Z M 450.582031 81.003906 " fill-opacity="1" fill-rule="nonzero"/><path fill="#ffffff" d="M 538.238281 419.605469 L 548.589844 303.574219 L 404.914062 303.574219 L 404.914062 360.902344 L 485.734375 360.902344 L 480.515625 419.605469 L 404.914062 419.605469 L 404.914062 476.929688 L 475.542969 476.929688 L 468.882812 551.277344 L 404.914062 568.535156 L 404.914062 628.175781 L 522.496094 595.605469 L 523.359375 585.921875 L 536.839844 434.996094 Z M 538.238281 419.605469 " fill-opacity="1" fill-rule="nonzero"/></svg>