<svg xmlns="http://www.w3.org/2000/svg" xmlns:xlink="http://www.w3.org/1999/xlink" width="1080" zoomAndPan="magnify" viewBox="0 0 810 809.999993" height="1080" preserveAspectRatio="xMidYMid meet" version="1.0"><defs><clipPath id="cb89e33035"><path d="M 175.253906 208 L 635 208 L 635 729 L 175.253906 729 Z M 175.253906 208 " clip-rule="nonzero"/></clipPath></defs><g clip-path="url(#cb89e33035)"><path fill="#e44d26" d="M 634.609375 208.34375 L 592.789062 676.859375 L 404.796875 728.976562 L 217.324219 676.933594 L 175.550781 208.34375 L 634.601562 208.335938 L 634.621094 208.335938 Z M 634.609375 208.34375 " fill-opacity="1" fill-rule="nonzero"/></g><path fill="#f16529" d="M 405.085938 689.140625 L 557 647.03125 L 592.738281 246.660156 L 405.085938 246.65625 Z M 405.085938 689.140625 " fill-opacity="1" fill-rule="nonzero"/><path fill="#ebebeb" d="M 323.785156 361.597656 L 405.085938 361.597656 L 405.085938 304.121094 L 260.976562 304.121094 L 262.351562 319.542969 L 276.476562 477.914062 L 405.085938 477.914062 L 405.085938 420.457031 L 329.035156 420.457031 Z M 323.785156 361.597656 " fill-opacity="1" fill-rule="nonzero"/><path fill="#ebebeb" d="M 336.734375 506.652344 L 279.042969 506.652344 L 287.09375 596.898438 L 404.816406 629.578125 L 405.085938 629.503906 L 405.085938 569.707031 L 404.832031 569.78125 L 340.828125 552.488281 Z M 336.734375 506.652344 " fill-opacity="1" fill-rule="nonzero"/><path fill="#ffffff" d="M 218.261719 81 L 247.46875 81 L 247.46875 109.855469 L 274.183594 109.855469 L 274.183594 81 L 303.390625 81 L 303.390625 168.378906 L 274.183594 168.378906 L 274.183594 139.121094 L 247.46875 139.121094 L 247.46875 168.378906 L 218.261719 168.378906 Z M 218.261719 81 " fill-opacity="1" fill-rule="nonzero"/><path fill="#ffffff" d="M 341.796875 109.976562 L 316.085938 109.976562 L 316.085938 81 L 396.734375 81 L 396.734375 109.976562 L 371.003906 109.976562 L 371.003906 168.378906 L 341.800781 168.378906 L 341.800781 109.976562 Z M 341.796875 109.976562 " fill-opacity="1" fill-rule="nonzero"/><path fill="#ffffff" d="M 409.53125 81 L 439.976562 81 L 458.710938 111.703125 L 477.425781 81 L 507.890625 81 L 507.890625 168.378906 L 478.808594 168.378906 L 478.808594 125.070312 L 458.710938 156.136719 L 458.207031 156.136719 L 438.105469 125.070312 L 438.105469 168.378906 L 409.53125 168.378906 Z M 409.53125 81 " fill-opacity="1" fill-rule="nonzero"/><path fill="#ffffff" d="M 522.429688 81 L 551.636719 81 L 551.636719 139.5 L 592.71875 139.5 L 592.71875 168.378906 L 522.429688 168.378906 Z M 522.429688 81 " fill-opacity="1" fill-rule="nonzero"/><path fill="#ffffff" d="M 404.886719 477.914062 L 475.660156 477.914062 L 468.984375 552.449219 L 404.886719 569.761719 L 404.886719 629.542969 L 522.699219 596.898438 L 523.5625 587.179688 L 537.078125 435.878906 L 538.480469 420.457031 L 404.886719 420.457031 Z M 404.886719 477.914062 " fill-opacity="1" fill-rule="nonzero"/><path fill="#ffffff" d="M 404.886719 361.453125 L 404.886719 361.597656 L 543.699219 361.597656 L 544.851562 348.675781 L 547.480469 319.542969 L 548.847656 304.121094 L 404.886719 304.121094 Z M 404.886719 361.453125 " fill-opacity="1" fill-rule="nonzero"/></svg>