<svg xmlns="http://www.w3.org/2000/svg" xmlns:xlink="http://www.w3.org/1999/xlink" width="1080" zoomAndPan="magnify" viewBox="0 0 810 809.999993" height="1080" preserveAspectRatio="xMidYMid meet" version="1.0"><defs><clipPath id="148de7646c"><path d="M 174.40625 207 L 635.65625 207 L 635.65625 729 L 174.40625 729 Z M 174.40625 207 " clip-rule="nonzero"/></clipPath></defs><g clip-path="url(#148de7646c)"><path fill="#e6a329" d="M 635.164062 207.980469 L 174.828125 207.980469 L 217.980469 675.964844 L 404.972656 729 L 591.960938 675.964844 Z M 635.164062 207.980469 " fill-opacity="1" fill-rule="nonzero"/></g><path fill="#f1bf22" d="M 404.972656 246.109375 L 404.972656 689.34375 L 556.476562 646.421875 L 593.332031 246.109375 Z M 404.972656 246.109375 " fill-opacity="1" fill-rule="nonzero"/><path fill="#ffffff" d="M 525.503906 303.523438 L 292.558594 303.523438 L 276.332031 478.722656 L 276.664062 477.632812 L 474.566406 477.632812 L 468.121094 551.761719 L 404.976562 569.925781 L 340.902344 551.46875 L 337.066406 506.601562 L 278.902344 506.601562 L 287.199219 596.253906 L 404.976562 629.6875 L 522.808594 596.253906 L 539.03125 420.277344 L 329.003906 420.277344 L 331.699219 361.648438 L 477.417969 361.648438 L 479.597656 395.242188 L 538.253906 395.242188 Z M 525.503906 303.523438 " fill-opacity="1" fill-rule="nonzero"/><path fill="#ebebeb" d="M 405.023438 303.523438 L 292.558594 303.523438 L 276.332031 478.722656 L 276.664062 477.632812 L 405.019531 477.632812 L 405.019531 420.476562 L 337.195312 420.476562 L 339.890625 361.847656 L 405.023438 361.847656 Z M 337.195312 506.628906 L 278.898438 506.628906 L 287.195312 596.234375 L 404.972656 629.632812 L 404.972656 570.007812 L 340.898438 551.503906 Z M 337.195312 506.628906 " fill-opacity="1" fill-rule="nonzero"/><path fill="#ffffff" d="M 360.210938 138.957031 L 319.230469 138.957031 L 319.230469 168.378906 L 389.542969 168.378906 L 389.542969 81 L 360.246094 81 Z M 490.742188 81.46875 L 419.304688 81.46875 L 419.304688 112.054688 C 428.84375 121.59375 433.816406 126.183594 447.871094 140 L 419.304688 140 L 419.304688 167.890625 L 490.738281 167.890625 L 490.738281 140.046875 L 462.203125 112.101562 L 490.765625 112.101562 Z M 490.742188 81.46875 " fill-opacity="1" fill-rule="nonzero"/></svg>