<svg xmlns="http://www.w3.org/2000/svg" xmlns:xlink="http://www.w3.org/1999/xlink" width="1080" zoomAndPan="magnify" viewBox="0 0 810 809.999993" height="1080" preserveAspectRatio="xMidYMid meet" version="1.0"><path fill="#ffffff" d="M 405 135.675781 C 400.59375 135.675781 396.1875 135.78125 391.785156 136 C 387.382812 136.214844 382.988281 136.539062 378.601562 136.972656 C 374.214844 137.402344 369.839844 137.941406 365.480469 138.589844 C 361.121094 139.238281 356.78125 139.988281 352.457031 140.851562 C 348.132812 141.710938 343.835938 142.675781 339.558594 143.746094 C 335.285156 144.816406 331.035156 145.992188 326.820312 147.273438 C 322.601562 148.550781 318.417969 149.933594 314.265625 151.417969 C 310.117188 152.902344 306.007812 154.488281 301.933594 156.175781 C 297.863281 157.863281 293.832031 159.648438 289.847656 161.53125 C 285.863281 163.417969 281.929688 165.398438 278.042969 167.476562 C 274.152344 169.554688 270.320312 171.726562 266.539062 173.992188 C 262.757812 176.257812 259.035156 178.617188 255.371094 181.0625 C 251.707031 183.511719 248.105469 186.050781 244.5625 188.675781 C 241.023438 191.300781 237.550781 194.011719 234.140625 196.808594 C 230.734375 199.605469 227.398438 202.484375 224.132812 205.441406 C 220.867188 208.402344 217.675781 211.441406 214.558594 214.558594 C 211.441406 217.675781 208.402344 220.867188 205.441406 224.132812 C 202.484375 227.398438 199.605469 230.734375 196.808594 234.140625 C 194.011719 237.550781 191.300781 241.023438 188.675781 244.5625 C 186.050781 248.105469 183.511719 251.707031 181.0625 255.371094 C 178.617188 259.035156 176.257812 262.757812 173.992188 266.539062 C 171.726562 270.320312 169.554688 274.152344 167.476562 278.042969 C 165.398438 281.929688 163.417969 285.863281 161.53125 289.847656 C 159.648438 293.832031 157.863281 297.863281 156.175781 301.933594 C 154.488281 306.007812 152.902344 310.117188 151.417969 314.265625 C 149.933594 318.417969 148.550781 322.601562 147.273438 326.820312 C 145.992188 331.035156 144.816406 335.285156 143.746094 339.558594 C 142.675781 343.835938 141.710938 348.132812 140.851562 352.457031 C 139.988281 356.78125 139.238281 361.121094 138.589844 365.480469 C 137.941406 369.839844 137.402344 374.214844 136.972656 378.601562 C 136.539062 382.988281 136.214844 387.382812 136 391.785156 C 135.78125 396.1875 135.675781 400.59375 135.675781 405 C 135.675781 409.40625 135.78125 413.8125 136 418.214844 C 136.214844 422.617188 136.539062 427.011719 136.972656 431.398438 C 137.402344 435.785156 137.941406 440.15625 138.589844 444.519531 C 139.238281 448.878906 139.988281 453.21875 140.851562 457.542969 C 141.710938 461.867188 142.675781 466.164062 143.746094 470.441406 C 144.816406 474.714844 145.992188 478.964844 147.273438 483.179688 C 148.550781 487.398438 149.933594 491.582031 151.417969 495.734375 C 152.902344 499.882812 154.488281 503.992188 156.175781 508.066406 C 157.863281 512.136719 159.648438 516.167969 161.53125 520.152344 C 163.417969 524.136719 165.398438 528.070312 167.476562 531.957031 C 169.554688 535.847656 171.726562 539.679688 173.992188 543.460938 C 176.257812 547.242188 178.617188 550.964844 181.0625 554.628906 C 183.511719 558.292969 186.050781 561.894531 188.675781 565.4375 C 191.300781 568.976562 194.011719 572.449219 196.808594 575.859375 C 199.605469 579.265625 202.484375 582.601562 205.441406 585.867188 C 208.402344 589.132812 211.441406 592.324219 214.558594 595.441406 C 217.675781 598.558594 220.867188 601.597656 224.132812 604.558594 C 227.398438 607.515625 230.734375 610.394531 234.140625 613.191406 C 237.550781 615.988281 241.023438 618.699219 244.5625 621.324219 C 248.105469 623.949219 251.707031 626.488281 255.371094 628.933594 C 259.035156 631.382812 262.757812 633.742188 266.539062 636.007812 C 270.320312 638.273438 274.152344 640.445312 278.042969 642.523438 C 281.929688 644.601562 285.863281 646.582031 289.847656 648.46875 C 293.832031 650.351562 297.863281 652.136719 301.933594 653.824219 C 306.007812 655.511719 310.117188 657.097656 314.265625 658.582031 C 318.417969 660.066406 322.601562 661.449219 326.820312 662.726562 C 331.035156 664.007812 335.285156 665.183594 339.558594 666.253906 C 343.835938 667.324219 348.132812 668.289062 352.457031 669.148438 C 356.78125 670.011719 361.121094 670.761719 365.480469 671.410156 C 369.839844 672.058594 374.214844 672.597656 378.601562 673.027344 C 382.988281 673.460938 387.382812 673.785156 391.785156 674 C 396.1875 674.21875 400.59375 674.324219 405 674.324219 C 409.40625 674.324219 413.8125 674.21875 418.214844 674 C 422.617188 673.785156 427.011719 673.460938 431.398438 673.027344 C 435.785156 672.597656 440.15625 672.058594 444.519531 671.410156 C 448.878906 670.761719 453.21875 670.011719 457.542969 669.148438 C 461.867188 668.289062 466.164062 667.324219 470.441406 666.253906 C 474.714844 665.183594 478.964844 664.007812 483.179688 662.726562 C 487.398438 661.449219 491.582031 660.066406 495.734375 658.582031 C 499.882812 657.097656 503.992188 655.511719 508.066406 653.824219 C 512.136719 652.136719 516.167969 650.351562 520.152344 648.46875 C 524.136719 646.582031 528.070312 644.601562 531.957031 642.523438 C 535.847656 640.445312 539.679688 638.273438 543.460938 636.007812 C 547.242188 633.742188 550.964844 631.382812 554.628906 628.933594 C 558.292969 626.488281 561.894531 623.949219 565.4375 621.324219 C 568.976562 618.699219 572.449219 615.988281 575.859375 613.191406 C 579.265625 610.394531 582.601562 607.515625 585.867188 604.558594 C 589.132812 601.597656 592.324219 598.558594 595.441406 595.441406 C 598.558594 592.324219 601.597656 589.132812 604.554688 585.867188 C 607.515625 582.601562 610.394531 579.265625 613.191406 575.859375 C 615.988281 572.449219 618.699219 568.976562 621.324219 565.4375 C 623.949219 561.894531 626.488281 558.292969 628.933594 554.628906 C 631.382812 550.964844 633.742188 547.242188 636.007812 543.460938 C 638.273438 539.679688 640.445312 535.847656 642.523438 531.957031 C 644.601562 528.070312 646.582031 524.136719 648.46875 520.152344 C 650.351562 516.167969 652.136719 512.136719 653.824219 508.066406 C 655.511719 503.992188 657.097656 499.882812 658.582031 495.734375 C 660.066406 491.582031 661.449219 487.398438 662.726562 483.179688 C 664.007812 478.964844 665.183594 474.714844 666.253906 470.441406 C 667.324219 466.164062 668.289062 461.867188 669.148438 457.542969 C 670.011719 453.21875 670.761719 448.878906 671.410156 444.519531 C 672.054688 440.15625 672.597656 435.785156 673.027344 431.398438 C 673.460938 427.011719 673.785156 422.617188 674 418.214844 C 674.21875 413.8125 674.324219 409.40625 674.324219 405 C 674.324219 400.59375 674.21875 396.1875 674 391.785156 C 673.785156 387.382812 673.460938 382.988281 673.027344 378.601562 C 672.597656 374.214844 672.054688 369.839844 671.410156 365.480469 C 670.761719 361.121094 670.011719 356.78125 669.148438 352.457031 C 668.289062 348.132812 667.324219 343.835938 666.253906 339.558594 C 665.183594 335.285156 664.007812 331.035156 662.726562 326.820312 C 661.449219 322.601562 660.066406 318.417969 658.582031 314.265625 C 657.097656 310.117188 655.511719 306.007812 653.824219 301.933594 C 652.136719 297.863281 650.351562 293.832031 648.46875 289.847656 C 646.582031 285.863281 644.601562 281.929688 642.523438 278.042969 C 640.445312 274.152344 638.273438 270.320312 636.007812 266.539062 C 633.742188 262.757812 631.382812 259.035156 628.933594 255.371094 C 626.488281 251.707031 623.949219 248.105469 621.324219 244.5625 C 618.699219 241.023438 615.988281 237.550781 613.191406 234.140625 C 610.394531 230.734375 607.515625 227.398438 604.554688 224.132812 C 601.597656 220.867188 598.558594 217.675781 595.441406 214.558594 C 592.324219 211.441406 589.132812 208.402344 585.867188 205.441406 C 582.601562 202.484375 579.265625 199.605469 575.859375 196.808594 C 572.449219 194.011719 568.976562 191.300781 565.4375 188.675781 C 561.894531 186.050781 558.292969 183.511719 554.628906 181.0625 C 550.964844 178.617188 547.242188 176.257812 543.460938 173.992188 C 539.679688 171.726562 535.847656 169.554688 531.957031 167.476562 C 528.070312 165.398438 524.136719 163.417969 520.152344 161.53125 C 516.167969 159.648438 512.136719 157.863281 508.066406 156.175781 C 503.992188 154.488281 499.882812 152.902344 495.734375 151.417969 C 491.582031 149.933594 487.398438 148.550781 483.179688 147.273438 C 478.964844 145.992188 474.714844 144.816406 470.441406 143.746094 C 466.164062 142.675781 461.867188 141.710938 457.542969 140.851562 C 453.21875 139.988281 448.878906 139.238281 444.519531 138.589844 C 440.15625 137.941406 435.785156 137.402344 431.398438 136.972656 C 427.011719 136.539062 422.617188 136.214844 418.214844 136 C 413.8125 135.78125 409.40625 135.675781 405 135.675781 Z M 405 135.675781 " fill-opacity="1" fill-rule="nonzero"/><path fill="#01579b" d="M 189.011719 405 C 189.011719 490.535156 238.695312 564.382812 310.757812 599.398438 L 207.699219 317.089844 C 195.722656 343.964844 189.011719 373.625 189.011719 405 Z M 550.855469 394.117188 C 550.855469 367.429688 536.503906 348.894531 528.308594 334.558594 C 517.332031 316.617188 507.03125 301.65625 507.03125 283.90625 C 507.03125 264.128906 526.890625 245.566406 548.085938 245.566406 C 549.046875 245.566406 549.910156 245.644531 550.867188 245.671875 C 512.472656 210.382812 461.269531 189 405.011719 189 C 332.261719 189 267.949219 224.992188 228.8125 280.113281 C 231.890625 281.109375 232.957031 280.636719 237.058594 280.636719 C 259.589844 280.636719 294.625 277.9375 294.625 277.9375 C 306.234375 277.167969 307.652344 294.300781 295.960938 295.703125 C 295.960938 295.703125 284.296875 297.121094 271.28125 297.757812 L 351.351562 537.757812 L 398.601562 395.996094 L 363.460938 298.148438 C 351.835938 297.527344 340.792969 296.09375 340.792969 296.09375 C 329.15625 295.339844 330.507812 277.53125 342.117188 278.328125 C 342.117188 278.328125 377.863281 281.03125 399.046875 281.03125 C 421.660156 281.03125 456.609375 278.328125 456.609375 278.328125 C 468.234375 277.558594 469.636719 294.691406 458.015625 296.09375 C 458.015625 296.09375 446.269531 297.511719 433.28125 298.148438 L 512.8125 535.882812 L 534.398438 463.980469 C 545.386719 435.902344 550.855469 412.679688 550.855469 394.117188 Z M 408.792969 423.847656 L 343.992188 612.199219 C 363.378906 617.949219 383.820312 621 405.011719 621 C 430.136719 621 454.273438 616.625 476.78125 608.753906 C 476.238281 607.796875 475.632812 606.824219 475.1875 605.785156 Z M 594.582031 301.292969 C 595.539062 308.179688 596.039062 315.589844 596.039062 323.5 C 596.039062 345.480469 591.90625 370.089844 579.582031 400.949219 L 513.632812 591.773438 C 577.867188 554.351562 621 484.675781 621 405 C 621 367.457031 611.402344 332.152344 594.582031 301.292969 Z M 594.582031 301.292969 " fill-opacity="1" fill-rule="nonzero"/><path fill="#01579b" d="M 135 405 C 135 553.824219 256.09375 675 404.988281 675 C 553.90625 675 675 553.824219 675 405 C 675 256.175781 553.90625 135 405 135 C 256.09375 135 135 256.175781 135 405 Z M 161.933594 405 C 161.933594 271.027344 270.929688 162.011719 404.988281 162.011719 C 539.042969 162.011719 648.066406 271.027344 648.066406 405 C 648.066406 538.972656 539.042969 648.011719 405 648.011719 C 270.972656 648.011719 161.933594 538.972656 161.933594 405 Z M 161.933594 405 " fill-opacity="1" fill-rule="nonzero"/></svg>